<svg xmlns="http://www.w3.org/2000/svg" width="1600" height="900" viewBox="0 0 1600 900" role="img" aria-label="Events, salon, workshop, and conference">
  <defs>
    <linearGradient id="bg" x1="0" y1="0" x2="1" y2="1">
      <stop offset="0%" stop-color="#f6efe3"/>
      <stop offset="100%" stop-color="#e1cdae"/>
    </linearGradient>
    <linearGradient id="stage" x1="0" y1="0" x2="0" y2="1">
      <stop offset="0%" stop-color="#b39266"/>
      <stop offset="100%" stop-color="#7f5d39"/>
    </linearGradient>
  </defs>

  <rect width="1600" height="900" fill="url(#bg)"/>
  <circle cx="240" cy="140" r="170" fill="#ffffff66"/>
  <circle cx="1340" cy="160" r="200" fill="#ffffff55"/>

  <rect x="120" y="460" width="1360" height="290" rx="24" fill="url(#stage)"/>
  <rect x="180" y="130" width="1240" height="390" rx="20" fill="#fffaf1" stroke="#ccb89a" stroke-width="8"/>

  <g fill="#ead8bd">
    <rect x="230" y="188" width="320" height="210" rx="18"/>
    <rect x="610" y="188" width="380" height="210" rx="18"/>
    <rect x="1050" y="188" width="320" height="210" rx="18"/>
  </g>

  <g fill="#6f5132">
    <circle cx="320" cy="565" r="30"/>
    <circle cx="420" cy="590" r="30"/>
    <circle cx="520" cy="565" r="30"/>
    <circle cx="620" cy="590" r="30"/>
    <circle cx="720" cy="565" r="30"/>
    <circle cx="820" cy="590" r="30"/>
    <circle cx="920" cy="565" r="30"/>
    <circle cx="1020" cy="590" r="30"/>
    <circle cx="1120" cy="565" r="30"/>
    <circle cx="1220" cy="590" r="30"/>
    <circle cx="1320" cy="565" r="30"/>
  </g>

  <g fill="none" stroke="#b89a70" stroke-width="8">
    <path d="M270 430 Q390 330 510 430"/>
    <path d="M690 430 Q800 320 910 430"/>
    <path d="M1090 430 Q1210 330 1330 430"/>
  </g>

  <g fill="#3f3425">
    <rect x="315" y="702" width="970" height="14" rx="7"/>
    <rect x="390" y="724" width="820" height="10" rx="5"/>
  </g>
</svg>
