<svg xmlns="http://www.w3.org/2000/svg" width="1600" height="900" viewBox="0 0 1600 900" role="img" aria-label="Cultural bridge between Persian-speaking world and Germany">
  <defs>
    <linearGradient id="bg" x1="0" y1="0" x2="1" y2="1">
      <stop offset="0%" stop-color="#f8f2e8"/>
      <stop offset="100%" stop-color="#e8d7bb"/>
    </linearGradient>
    <linearGradient id="river" x1="0" y1="0" x2="0" y2="1">
      <stop offset="0%" stop-color="#89a7b3"/>
      <stop offset="100%" stop-color="#5f7d8a"/>
    </linearGradient>
    <linearGradient id="bridge" x1="0" y1="0" x2="1" y2="0">
      <stop offset="0%" stop-color="#8e6d44"/>
      <stop offset="100%" stop-color="#6f5132"/>
    </linearGradient>
  </defs>

  <rect width="1600" height="900" fill="url(#bg)"/>
  <circle cx="200" cy="170" r="180" fill="#ffffff66"/>
  <circle cx="1420" cy="140" r="210" fill="#ffffff44"/>

  <path d="M0 600 C260 560 420 640 600 610 C820 570 960 680 1200 640 C1350 615 1470 630 1600 620 L1600 900 L0 900 Z" fill="url(#river)"/>

  <rect x="120" y="500" width="1360" height="28" rx="14" fill="url(#bridge)"/>
  <path d="M180 500 C260 370 400 300 560 300 C720 300 860 370 940 500" fill="none" stroke="#7c5d39" stroke-width="22"/>
  <path d="M660 500 C740 390 860 335 980 335 C1110 335 1230 390 1320 500" fill="none" stroke="#7c5d39" stroke-width="20"/>
  <g fill="#4c4438">
    <rect x="190" y="460" width="18" height="68"/>
    <rect x="360" y="430" width="18" height="98"/>
    <rect x="530" y="408" width="18" height="120"/>
    <rect x="700" y="420" width="18" height="108"/>
    <rect x="870" y="438" width="18" height="90"/>
    <rect x="1040" y="450" width="18" height="78"/>
    <rect x="1210" y="460" width="18" height="68"/>
    <rect x="1380" y="468" width="18" height="60"/>
  </g>

  <g fill="#5f5343">
    <rect x="1020" y="305" width="34" height="160"/>
    <rect x="1068" y="275" width="34" height="190"/>
    <rect x="1116" y="250" width="34" height="215"/>
    <rect x="1164" y="284" width="34" height="181"/>
    <rect x="1212" y="320" width="34" height="145"/>
  </g>

  <g fill="none" stroke="#c49a61" stroke-width="4">
    <path d="M300 250 Q345 210 390 250 Q345 290 300 250 Z"/>
    <path d="M380 210 Q425 170 470 210 Q425 250 380 210 Z"/>
    <path d="M460 250 Q505 210 550 250 Q505 290 460 250 Z"/>
  </g>
</svg>
