<svg xmlns="http://www.w3.org/2000/svg" width="1600" height="900" viewBox="0 0 1600 900" role="img" aria-label="Publications, research, and library work">
  <defs>
    <linearGradient id="bg" x1="0" y1="0" x2="1" y2="1">
      <stop offset="0%" stop-color="#f8f2e8"/>
      <stop offset="100%" stop-color="#e4d2b4"/>
    </linearGradient>
    <linearGradient id="shelf" x1="0" y1="0" x2="0" y2="1">
      <stop offset="0%" stop-color="#b39266"/>
      <stop offset="100%" stop-color="#89643e"/>
    </linearGradient>
  </defs>

  <rect width="1600" height="900" fill="url(#bg)"/>

  <rect x="120" y="210" width="1360" height="34" rx="12" fill="url(#shelf)"/>
  <rect x="120" y="470" width="1360" height="34" rx="12" fill="url(#shelf)"/>
  <rect x="120" y="730" width="1360" height="34" rx="12" fill="url(#shelf)"/>

  <g transform="translate(170 110)">
    <rect x="0" y="110" width="90" height="360" rx="10" fill="#d7be99"/>
    <rect x="110" y="80" width="90" height="390" rx="10" fill="#c7a675"/>
    <rect x="220" y="120" width="90" height="350" rx="10" fill="#a88456"/>
    <rect x="330" y="100" width="90" height="370" rx="10" fill="#8f6c43"/>
    <rect x="440" y="90" width="90" height="380" rx="10" fill="#6f5132"/>

    <rect x="0" y="370" width="530" height="260" rx="18" fill="#fffdf8" stroke="#ccb89a" stroke-width="8"/>
    <circle cx="220" cy="500" r="76" fill="#f5e8d3" stroke="#a88456" stroke-width="8"/>
    <path d="M220 424 V576" stroke="#6f5132" stroke-width="8"/>
    <path d="M144 500 H296" stroke="#6f5132" stroke-width="8"/>
    <path d="M488 618 H538" stroke="#8e6d44" stroke-width="8" stroke-linecap="round"/>
    <circle cx="553" cy="618" r="23" fill="none" stroke="#8e6d44" stroke-width="8"/>
  </g>

  <g transform="translate(850 110)">
    <rect x="0" y="140" width="78" height="330" rx="10" fill="#a88456"/>
    <rect x="95" y="70" width="78" height="400" rx="10" fill="#d7be99"/>
    <rect x="190" y="100" width="78" height="370" rx="10" fill="#8f6c43"/>
    <rect x="285" y="120" width="78" height="350" rx="10" fill="#c7a675"/>
    <rect x="380" y="90" width="78" height="380" rx="10" fill="#6f5132"/>
    <rect x="475" y="130" width="78" height="340" rx="10" fill="#b39266"/>

    <rect x="0" y="390" width="553" height="240" rx="18" fill="#fffdfa" stroke="#ccb89a" stroke-width="8"/>
    <path d="M80 475 H430" stroke="#ead8bd" stroke-width="20" stroke-linecap="round"/>
    <path d="M80 530 H430" stroke="#ead8bd" stroke-width="20" stroke-linecap="round"/>
    <path d="M80 585 H320" stroke="#ead8bd" stroke-width="20" stroke-linecap="round"/>
    <rect x="448" y="450" width="75" height="160" rx="10" fill="#d4bb95"/>
  </g>
</svg>
